# xmcd
#
# Track frame offsets:
# 151
# 9542
# 17575
# 28008
# 36731
# 45686
# 57669
# 66822
# 74813
# 83158
# 91467
# 101254
# 112315
# 125354
#
# Disc length: 1847 seconds
#
#
# Revision: 0
# Processed by: cddbd v1.5.2PL0 Copyright (c) Steve Scherf et al.
# Submitted via: FreeRIP 2.96 
#
DISCID=c907350e
DTITLE=Shillelagh Sisters - Tyrannical Mex
DYEAR=1900
DGENRE=Rockabilly
TTITLE0=Fool I Am
TTITLE1=Bang Bang
TTITLE2=Black Cadillac
TTITLE3=Let's Elope
TTITLE4=Romp and Stomp
TTITLE5=Boots
TTITLE6=My Man
TTITLE7=Hoy Hoy
TTITLE8=Rockin' Lady
TTITLE9=If You Can't Rock Me
TTITLE10=Gotta Know
TTITLE11=Gotta Lotta Rhythm
TTITLE12=Mojo Boogie
TTITLE13=Dig Myself A Hole
EXTD=
EXTT0=
EXTT1=
EXTT2=
EXTT3=
EXTT4=
EXTT5=
EXTT6=
EXTT7=
EXTT8=
EXTT9=
EXTT10=
EXTT11=
EXTT12=
EXTT13=
PLAYORDER=
